<?xml version="1.0" encoding="utf-8"?>
<!-- Generator: Adobe Illustrator 27.5.0, SVG Export Plug-In . SVG Version: 6.00 Build 0)  -->
<svg version="1.1" xmlns="http://www.w3.org/2000/svg" xmlns:xlink="http://www.w3.org/1999/xlink" x="0px" y="0px"
	 viewBox="0 0 3710 3710" style="enable-background:new 0 0 3710 3710;" xml:space="preserve">
<g id="Background">
	<g>
		<g>
			<rect style="fill:#FFFFFF;" width="3710" height="3710"/>
		</g>
	</g>
</g>
<g id="Illustration">
	<g>
		<linearGradient id="SVGID_1_" gradientUnits="userSpaceOnUse" x1="3451.03" y1="3619.8232" x2="1528.525" y2="1573.2861">
			<stop  offset="0" style="stop-color:#DAE3FE"/>
			<stop  offset="1" style="stop-color:#E9EFFD"/>
		</linearGradient>
		<path style="fill:url(#SVGID_1_);" d="M2873.8,2798.761c-70.971,73.155-134.473,116.157-183.093,148.621
			c-474.178,316.613-1016.215,225.358-1183.799,194.167c-270.377-50.323-498.612-85.823-694.707-262.987
			c-445.587-402.57-423.915-1242.362-83.432-1762.576c40.371-61.682,380.338-565.62,923.549-636.629
			c13.286-1.737,23.199-2.726,31.882-3.645c84.033-8.897,604.771-55.855,1029.381,299.883
			c60.781,50.922,158.595,142.773,249.3,282.86C3294.541,1570.676,3295.591,2363.994,2873.8,2798.761z"/>
		<g>
			<path style="fill:#91B3FA;" d="M2864.533,3070.023l-1959.687,37.004c-42.683,0.806-79.269-57.361-83.936-133.447L680.241,680.317
				c-5.195-84.693,30.91-157.72,78.422-158.617l2124.404-40.114c46.76-0.883,85.287,68.562,84.411,152.153l-24.048,2296.374
				C2942.617,3007.723,2907.948,3069.204,2864.533,3070.023z"/>
			
				<linearGradient id="SVGID_00000165932230481104572180000007333288943473290175_" gradientUnits="userSpaceOnUse" x1="795.1971" y1="1803.9894" x2="2853.6816" y2="1803.9894">
				<stop  offset="0" style="stop-color:#DAE3FE"/>
				<stop  offset="1" style="stop-color:#E9EFFD"/>
			</linearGradient>
			<path style="fill:url(#SVGID_00000165932230481104572180000007333288943473290175_);" d="M2762.207,2984.652l-1763.295,33.295
				c-38.405,0.725-71.353-53.104-75.589-123.495L795.653,772.829c-4.715-78.354,27.737-145.896,70.487-146.703l1911.505-36.093
				c42.074-0.794,76.773,63.469,76.025,140.801l-20.539,2124.421C2832.437,2927.053,2801.271,2983.914,2762.207,2984.652z"/>
			<path style="opacity:0.66;fill:#FFFFFF;" d="M2349.823,877.259l-862.941,16.294c-19.217,0.363-35.171-19.196-35.633-43.687v0
				c-0.462-24.491,14.741-44.639,33.959-45.002l862.942-16.294c19.217-0.363,35.171,19.197,35.633,43.688l0,0
				C2384.245,856.749,2369.041,876.897,2349.823,877.259z"/>
			<path style="opacity:0.66;fill:#FFFFFF;" d="M2737.125,1127.801l-1795.473,33.902c-22.174,0.419-40.524-19.096-40.986-43.586v0
				c-0.463-24.491,17.138-44.684,39.312-45.103l1795.473-33.903c22.174-0.418,40.524,19.096,40.987,43.587l0,0
				C2776.899,1107.189,2759.299,1127.382,2737.125,1127.801z"/>
			<path style="opacity:0.66;fill:#FFFFFF;" d="M2702.4,1330.715l-1718.386,32.447c-22.174,0.419-40.524-19.096-40.986-43.587l0,0
				c-0.463-24.491,17.138-44.684,39.312-45.103l1718.386-32.447c22.174-0.418,40.524,19.096,40.986,43.587v0
				C2742.174,1310.103,2724.573,1330.296,2702.4,1330.715z"/>
		</g>
		<g>
			
				<linearGradient id="SVGID_00000178899255778183730850000016210023737132027561_" gradientUnits="userSpaceOnUse" x1="1413.4567" y1="-1016.1276" x2="1239.8986" y2="31.8996" gradientTransform="matrix(0.9998 -0.0189 0.0189 0.9998 -59.5478 19.4772)">
				<stop  offset="0" style="stop-color:#E1473D"/>
				<stop  offset="1" style="stop-color:#E9605A"/>
			</linearGradient>
			<path style="fill:url(#SVGID_00000178899255778183730850000016210023737132027561_);" d="M973.542,1153.865
				c0.149,7.873-82.516,181.664-121.25,262.647c-7.003,14.641,7.537,30.281,22.656,24.384l90.793-35.411
				c7.389-2.882,15.794-0.557,20.651,5.712l67.089,86.579c9.531,12.3,29.135,7.418,31.785-7.916l51.037-295.357L973.542,1153.865z"
				/>
			
				<linearGradient id="SVGID_00000183944982418157958180000017626676464743371195_" gradientUnits="userSpaceOnUse" x1="1651.4049" y1="-976.7205" x2="1477.8464" y2="71.3089" gradientTransform="matrix(0.9998 -0.0189 0.0189 0.9998 -59.5478 19.4772)">
				<stop  offset="0" style="stop-color:#E1473D"/>
				<stop  offset="1" style="stop-color:#E9605A"/>
			</linearGradient>
			<path style="fill:url(#SVGID_00000183944982418157958180000017626676464743371195_);" d="M1251.545,1148.616
				c0.149,7.873,89.315,178.419,131.079,257.882c7.55,14.366-6.388,30.544-21.72,25.222l-92.065-31.958
				c-7.493-2.601-15.803,0.039-20.421,6.488l-63.773,89.05c-9.06,12.651-28.835,8.513-32.061-6.71l-62.151-293.219
				L1251.545,1148.616z"/>
			
				<linearGradient id="SVGID_00000004508545840627831360000008915364560880449208_" gradientUnits="userSpaceOnUse" x1="1838.1777" y1="396.4262" x2="1462.7091" y2="711.8203">
				<stop  offset="0" style="stop-color:#FF928E"/>
				<stop  offset="1" style="stop-color:#FE7062"/>
			</linearGradient>
			
				<circle style="fill:url(#SVGID_00000004508545840627831360000008915364560880449208_);" cx="1117.24" cy="1002.014" r="259.659"/>
			
				<linearGradient id="SVGID_00000176017640941250048590000011050472289075546273_" gradientUnits="userSpaceOnUse" x1="1025.2526" y1="1211.0835" x2="1435.7645" y2="284.9289">
				<stop  offset="0" style="stop-color:#FEBBBA"/>
				<stop  offset="1" style="stop-color:#FF928E"/>
			</linearGradient>
			
				<circle style="fill:url(#SVGID_00000176017640941250048590000011050472289075546273_);" cx="1118.501" cy="1000.705" r="206.956"/>
		</g>
		<g>
			
				<linearGradient id="SVGID_00000016791734025857101980000007323716759577607852_" gradientUnits="userSpaceOnUse" x1="2841.053" y1="132.8563" x2="2775.9719" y2="803.6929">
				<stop  offset="0" style="stop-color:#4F52FF"/>
				<stop  offset="1" style="stop-color:#4042E2"/>
			</linearGradient>
			<path style="fill:url(#SVGID_00000016791734025857101980000007323716759577607852_);" d="M2500.682,676.308l-27.888,151.651
				c-3.785,20.586,1.515,41.805,14.594,58.146c32.847,41.037,110.666,113.493,264.368,140.302
				c156.104,27.227,238.683-22.442,273.365-53.409c12.558-11.213,21.074-26.228,24.262-42.758l30.994-160.733L2500.682,676.308z"/>
			
				<linearGradient id="SVGID_00000127026172445968046680000001302584184961342856_" gradientUnits="userSpaceOnUse" x1="2784.2371" y1="980.9442" x2="2844.312" y2="44.7742">
				<stop  offset="0" style="stop-color:#4F52FF"/>
				<stop  offset="1" style="stop-color:#4042E2"/>
			</linearGradient>
			<path style="fill:url(#SVGID_00000127026172445968046680000001302584184961342856_);" d="M2808.756,456.872l-416.385,157.654
				c-21.44,8.118-25.164,36.86-6.488,50.156c91.098,64.858,298.496,216.354,380.081,307.801c8.728,9.783,22.993,12.347,34.614,6.278
				l416.157-217.336c18.825-9.831,20.811-35.998,3.671-48.538c-90.383-66.133-320.126-231.407-392.244-256.344
				C2821.858,454.364,2814.994,454.51,2808.756,456.872z"/>
			
				<linearGradient id="SVGID_00000174600920071579312840000014308755801224129454_" gradientUnits="userSpaceOnUse" x1="3235.6501" y1="1546.8528" x2="3179.7246" y2="1192.6569" gradientTransform="matrix(0.9931 -0.117 0.117 0.9931 -305.6342 93.4226)">
				<stop  offset="0" style="stop-color:#4F52FF"/>
				<stop  offset="1" style="stop-color:#4042E2"/>
			</linearGradient>
			<path style="fill:url(#SVGID_00000174600920071579312840000014308755801224129454_);" d="M2819.163,678.299
				c0,0,240.454,123.33,260.725,154.594c20.271,31.264-1.372,183.517-1.372,183.517c47.083,123.039,64.597,259.641,10.442,336.742
				c0,0-89.421-159.346-62.308-232.28c27.113-72.934,37.41-102.759,37.41-102.759s15.011-161.589,3.761-183.495
				C3067.821,834.617,2800.651,689.114,2819.163,678.299z"/>
			<path style="fill:#91B3FA;" d="M2454.718,647.362c0,0,118.699,98.274,237.401,196.547c14.837,12.283,29.674,24.568,44.28,36.661
				c7.304,6.046,14.55,12.044,21.708,17.969c3.579,2.963,7.135,5.909,10.668,8.833c1.721,1.408,3.625,3.038,5.176,4.25
				c1.943,1.514,3.263,2.425,5.121,3.46c7.066,4.053,15.287,5.74,23.109,4.984c3.911-0.359,7.728-1.297,11.294-2.745
				c3.869-1.67,7.689-3.318,11.46-4.945c15.179-6.604,29.531-12.847,42.78-18.608c52.992-23.051,88.321-38.417,88.321-38.417
				c1.639-0.714,3.55,0.037,4.263,1.679c0.707,1.63-0.029,3.523-1.646,4.249c0,0-35.156,15.759-87.887,39.4
				c-13.185,5.909-27.464,12.311-42.572,19.082c-3.823,1.697-7.497,3.404-11.584,5.152c-4.28,1.794-8.885,2.984-13.618,3.471
				c-9.466,1.015-19.469-0.906-28.146-5.75c-2.115-1.11-4.537-2.79-6.186-4.068c-2.047-1.571-3.621-2.907-5.466-4.381
				c-3.563-2.885-7.155-5.789-10.766-8.712c-7.223-5.846-14.534-11.763-21.904-17.728c-14.739-11.928-29.713-24.047-44.687-36.164
				c-119.788-96.944-239.579-193.888-239.579-193.888c-2.865-2.321-3.308-6.524-0.988-9.389c2.318-2.867,6.522-3.31,9.387-0.991
				C2454.669,647.322,2454.708,647.355,2454.718,647.362z"/>
			<path style="fill:#91B3FA;" d="M3070.456,1095.802c0,0-0.633,0.769-1.304,1.76c-0.368,0.471-0.857,1.253-1.431,2.197
				c-0.57,0.927-1.261,1.961-1.903,3.264c-0.655,1.286-1.46,2.652-2.197,4.242c-0.71,1.612-1.48,3.356-2.304,5.218
				c-0.805,1.874-1.45,3.981-2.252,6.142c-0.844,2.15-1.512,4.496-2.151,6.972c-0.613,2.48-1.509,4.994-1.975,7.728
				c-0.528,2.723-1.069,5.538-1.63,8.431c-0.6,2.888-0.753,5.948-1.167,9.029c-0.323,3.095-0.841,6.242-0.857,9.5
				c-0.244,6.49-0.675,13.206-0.225,20.063c0.127,3.429,0.254,6.884,0.381,10.354c0.368,3.463,0.737,6.939,1.105,10.415
				c0.417,3.471,0.626,6.974,1.212,10.416c0.606,3.442,1.209,6.869,1.806,10.271c0.603,3.405,1.203,6.781,1.796,10.119
				c0.802,3.297,1.594,6.555,2.376,9.759c0.779,3.209,1.545,6.362,2.298,9.451c0.381,1.543,0.756,3.069,1.131,4.578
				c0.46,1.485,0.913,2.951,1.359,4.4c1.793,5.794,3.488,11.273,5.049,16.33c1.447,5.103,3.298,9.602,4.775,13.649
				c1.509,4.037,2.823,7.557,3.905,10.456c2.164,5.802,3.403,9.118,3.403,9.118l0.045,0.117c0.447,1.201-0.163,2.537-1.362,2.986
				c-1.173,0.437-2.474-0.137-2.953-1.279c0,0-1.375-3.292-3.784-9.055c-1.203-2.883-2.666-6.384-4.342-10.399
				c-1.649-4.029-3.693-8.505-5.355-13.61c-1.78-5.062-3.706-10.547-5.746-16.349c-0.512-1.452-1.03-2.924-1.552-4.413
				c-0.437-1.517-0.88-3.054-1.33-4.607c-0.883-3.111-1.79-6.291-2.709-9.524c-0.919-3.238-1.851-6.529-2.8-9.86
				c-0.737-3.388-1.483-6.819-2.236-10.275c-0.743-3.463-1.496-6.956-2.249-10.46c-0.737-3.51-1.095-7.11-1.662-10.671
				c-0.518-3.576-1.033-7.15-1.548-10.709c-0.271-3.597-0.544-7.179-0.812-10.733c-0.73-7.104-0.567-14.159-0.561-20.989
				c-0.107-3.416,0.297-6.773,0.515-10.065c0.313-3.286,0.365-6.522,0.88-9.641c0.479-3.124,0.945-6.164,1.398-9.104
				c0.398-2.95,1.248-5.738,1.819-8.452c0.593-2.712,1.229-5.3,2.063-7.718c0.789-2.425,1.421-4.757,2.239-6.895
				c0.848-2.132,1.64-4.13,2.37-5.974c0.769-1.838,1.643-3.486,2.347-4.997c0.685-1.512,1.473-2.831,2.125-3.985
				c0.642-1.142,1.206-2.127,1.815-3.005c1.167-1.79,1.656-2.402,1.656-2.402l0.156-0.196c2.298-2.883,6.496-3.359,9.381-1.061
				c2.881,2.298,3.357,6.498,1.059,9.381C3070.508,1095.737,3070.472,1095.784,3070.456,1095.802z"/>
			<path style="fill:#91B3FA;" d="M3083.057,1152.267c0,0,0.02,0.629,0.059,1.809c0.039,1.177,0.222,2.471,0.352,4.353
				c0.391,4.34,0.952,10.538,1.626,17.976c1.493,15.046,3.485,35.106,5.479,55.166c4.143,40.127,8.289,80.254,8.289,80.254
				c0.212,1.992-1.232,3.779-3.224,3.991c-1.946,0.207-3.696-1.18-3.98-3.098c0,0-5.658-39.956-11.317-79.91
				c-2.751-20-5.502-39.998-7.565-54.996c-0.978-7.599-1.789-13.932-2.36-18.365c-0.271-2.51-0.496-4.661-0.577-5.844
				c-0.081-1.181-0.124-1.812-0.124-1.812c-0.254-3.67,2.516-6.851,6.187-7.106c3.673-0.254,6.854,2.516,7.109,6.188
				c0.003,0.075,0.007,0.148,0.01,0.223L3083.057,1152.267z"/>
		</g>
		<g>
			<g>
				<g>
					<path style="fill:#91B3FA;" d="M2115.528,2766.515l1034.546,0.001v-199.465l-1034.546,0.001
						C2137.671,2567.053,2137.671,2766.515,2115.528,2766.515z"/>
					
						<linearGradient id="SVGID_00000153703116865821648000000013248729271183046039_" gradientUnits="userSpaceOnUse" x1="2595.5144" y1="2831.1597" x2="3206.2773" y2="983.8535">
						<stop  offset="0" style="stop-color:#4F52FF"/>
						<stop  offset="1" style="stop-color:#4042E2"/>
					</linearGradient>
					<path style="fill:url(#SVGID_00000153703116865821648000000013248729271183046039_);" d="M3150.073,2716.602v-91.284
						c0-32.179-20.444-58.265-45.664-58.265H2119.89c-19.832,0-35.91-15.487-35.91-34.593c0-5.804,4.885-10.51,10.911-10.51
						h1076.003c24.676,0,63.854,37.372,63.854,83.474v127.489c0,43.466-38.035,78.704-61.3,78.704H2100.552
						c-9.153,0-16.572-7.147-16.572-15.963c0-16.093,13.543-29.139,30.249-29.139h996.726
						C3132.559,2766.515,3150.073,2744.168,3150.073,2716.602z"/>
				</g>
				<path style="fill:#FFFFFF;" d="M3121.382,2611.316h-970.029c-1.845,0-3.338-1.493-3.338-3.338c0-1.845,1.493-3.338,3.338-3.338
					h970.029c1.845,0,3.337,1.493,3.337,3.338C3124.719,2609.823,3123.226,2611.316,3121.382,2611.316z"/>
				<path style="fill:#FFFFFF;" d="M3121.382,2640.922h-970.029c-1.845,0-3.338-1.493-3.338-3.338c0-1.845,1.493-3.338,3.338-3.338
					h970.029c1.845,0,3.337,1.493,3.337,3.338C3124.719,2639.429,3123.226,2640.922,3121.382,2640.922z"/>
				<path style="fill:#FFFFFF;" d="M3121.382,2670.531h-970.029c-1.845,0-3.338-1.493-3.338-3.338c0-1.845,1.493-3.338,3.338-3.338
					h970.029c1.845,0,3.337,1.493,3.337,3.338C3124.719,2669.038,3123.226,2670.531,3121.382,2670.531z"/>
				<path style="fill:#FFFFFF;" d="M3121.382,2700.136h-970.029c-1.845,0-3.338-1.493-3.338-3.338c0-1.845,1.493-3.337,3.338-3.337
					h970.029c1.845,0,3.337,1.493,3.337,3.337C3124.719,2698.643,3123.226,2700.136,3121.382,2700.136z"/>
				<path style="fill:#FFFFFF;" d="M3121.382,2729.745h-970.029c-1.845,0-3.338-1.493-3.338-3.338s1.493-3.338,3.338-3.338h970.029
					c1.845,0,3.337,1.493,3.337,3.338S3123.226,2729.745,3121.382,2729.745z"/>
			</g>
			<g>
				
					<linearGradient id="SVGID_00000054245380449419015800000000171108587717919145_" gradientUnits="userSpaceOnUse" x1="2926.2466" y1="1859.2004" x2="2583.1963" y2="2742.8132">
					<stop  offset="0" style="stop-color:#4F52FF"/>
					<stop  offset="1" style="stop-color:#4042E2"/>
				</linearGradient>
				<path style="fill:url(#SVGID_00000054245380449419015800000000171108587717919145_);" d="M3161.586,3142.776H1823.641
					c-11.814,0-21.391-9.577-21.391-21.391v-290.503c0-11.814,9.577-21.391,21.391-21.391h1337.945
					c11.814,0,21.391,9.577,21.391,21.391v290.503C3182.977,3133.199,3173.4,3142.776,3161.586,3142.776z"/>
				<path style="fill:#7D97F4;" d="M2113.254,3104.472h-147.721c-4,0-7.242-3.242-7.242-7.242v-242.193c0-4,3.242-7.242,7.242-7.242
					h147.721c4,0,7.242,3.242,7.242,7.242v242.193C2120.496,3101.229,2117.254,3104.472,2113.254,3104.472z"/>
				<path style="fill:#7D97F4;" d="M2199.325,3104.472h-49.08c-3.253,0-5.89-2.637-5.89-5.89v-244.897c0-3.253,2.637-5.89,5.89-5.89
					h49.08c3.253,0,5.89,2.637,5.89,5.89v244.897C2205.215,3101.834,2202.578,3104.472,2199.325,3104.472z"/>
			</g>
		</g>
		<g>
			<g>
				
					<linearGradient id="SVGID_00000164516282011727927240000014626823483854450606_" gradientUnits="userSpaceOnUse" x1="3338.1299" y1="1271.2141" x2="2952.6482" y2="1786.8583">
					<stop  offset="0" style="stop-color:#FF928E"/>
					<stop  offset="1" style="stop-color:#FE7062"/>
				</linearGradient>
				<path style="fill:url(#SVGID_00000164516282011727927240000014626823483854450606_);" d="M2564.574,2115.768
					c102.435,17.939,170.667-48.075,221.334-87.944c66.896-52.639,117.665-25.457,117.665-25.457l-72.883,137.833
					c-106.855,100.685-213.995,75.855-281.184,41.304C2548.971,2154.605,2556.316,2132.242,2564.574,2115.768z"/>
				
					<linearGradient id="SVGID_00000036223378868596412860000013925828585001570493_" gradientUnits="userSpaceOnUse" x1="-4005.4214" y1="1789.334" x2="-4487.146" y2="2405.6582" gradientTransform="matrix(-0.9998 -0.0189 -0.0189 0.9998 -1653.908 -2.4894)">
					<stop  offset="0" style="stop-color:#FEBBBA"/>
					<stop  offset="1" style="stop-color:#FF928E"/>
				</linearGradient>
				<path style="fill:url(#SVGID_00000036223378868596412860000013925828585001570493_);" d="M2421.379,2049.428l33.711,19.671
					c40.372,26.592,76.677,40.925,109.484,46.669c-8.258,16.474-15.603,38.837-15.067,65.735
					c-42.77-21.992-69.355-47.923-69.355-47.923C2403.873,2084.359,2421.379,2049.428,2421.379,2049.428z"/>
			</g>
			<g>
				
					<linearGradient id="SVGID_00000147189850288315783680000007931736947860601479_" gradientUnits="userSpaceOnUse" x1="2633.2939" y1="2483.1155" x2="3629.5349" y2="1416.787">
					<stop  offset="0" style="stop-color:#4F52FF"/>
					<stop  offset="1" style="stop-color:#4042E2"/>
				</linearGradient>
				<path style="fill:url(#SVGID_00000147189850288315783680000007931736947860601479_);" d="M2803.468,3002.979L2528.373,1847.88
					l-117.743,22.724l174.509,1174.512c0.389,2.619,0.836,5.233,1.338,7.834l7.584,39.29c13.012,67.421,60.41,114.963,105.87,106.19
					l54.044-10.43c45.46-8.773,71.763-70.54,58.75-137.961l-7.583-39.291C2804.64,3008.147,2804.081,3005.554,2803.468,3002.979z
					 M2712.953,3120.67c-30.162,5.822-62.555-30.609-72.351-81.369c-9.797-50.761,6.713-96.629,36.875-102.45
					c30.161-5.82,62.553,30.61,72.349,81.37C2759.622,3068.981,2743.114,3114.849,2712.953,3120.67z"/>
				
					<linearGradient id="SVGID_00000164476985221346599890000009211300018861062037_" gradientUnits="userSpaceOnUse" x1="-5628.0166" y1="6243.6938" x2="-4972.1953" y2="5788.124" gradientTransform="matrix(0.9819 -0.1895 0.1895 0.9819 -2829.6833 4296.8794)">
					<stop  offset="0" style="stop-color:#4F52FF"/>
					<stop  offset="1" style="stop-color:#4042E2"/>
				</linearGradient>
				<path style="fill:url(#SVGID_00000164476985221346599890000009211300018861062037_);" d="M2510.916,1438.362l43.999,227.978
					c3.133,16.232-1.446,32.999-12.395,45.386l-56.121,63.494c-16.019,18.124-42.237,23.183-63.85,12.323l-75.718-38.05
					c-14.771-7.423-25.261-21.281-28.394-37.514L2274.438,1484c-6.636-34.386-50.968-45.47-72.36-17.742
					c-51.177,66.335-74.668,155.053-57.162,245.761c31.642,163.949,181.247,252.058,338.944,221.624
					c157.697-30.434,263.77-167.889,232.128-331.838c-17.506-90.708-72.324-164.313-144.511-206.84
					C2541.302,1377.19,2504.28,1403.975,2510.916,1438.362z"/>
				<path style="fill:#7D97F4;" d="M2489.431,1442.508l43.999,227.978c3.132,16.232-1.446,32.999-12.395,45.385l-56.123,63.496
					c-16.019,18.124-42.236,23.183-63.849,12.322l-75.719-38.05c-14.772-7.422-25.261-21.281-28.394-37.513l-43.999-227.978
					c-6.636-34.387-50.967-45.471-72.36-17.743c-51.177,66.336-74.668,155.053-57.161,245.762
					c31.642,163.949,181.247,252.058,338.944,221.624c157.697-30.436,263.769-167.889,232.128-331.839
					c-17.506-90.708-72.325-164.313-144.512-206.839C2519.816,1381.336,2482.793,1408.121,2489.431,1442.508z"/>
				<g>
					<path style="fill:#7D97F4;" d="M2786.329,3006.286l-275.095-1155.099l-117.743,22.724L2568,3048.423
						c0.389,2.619,0.836,5.233,1.338,7.834l7.583,39.291c13.012,67.421,60.411,114.963,105.87,106.19l54.044-10.43
						c45.459-8.773,71.761-70.54,58.75-137.961l-7.583-39.291C2787.501,3011.454,2786.941,3008.862,2786.329,3006.286z
						 M2695.813,3123.978c-30.161,5.821-62.553-30.609-72.351-81.369c-9.797-50.761,6.714-96.629,36.875-102.45
						c30.162-5.821,62.553,30.61,72.35,81.37C2742.483,3072.289,2725.975,3118.156,2695.813,3123.978z"/>
				</g>
			</g>
			
				<linearGradient id="SVGID_00000135672295455389110510000009775876874102119855_" gradientUnits="userSpaceOnUse" x1="2241.1062" y1="-1109.3491" x2="2446.0789" y2="-566.1711" gradientTransform="matrix(0.4243 0.9055 -0.9055 0.4243 550.8496 493.1536)">
				<stop  offset="0" style="stop-color:#FEBBBA"/>
				<stop  offset="1" style="stop-color:#FF928E"/>
			</linearGradient>
			<path style="fill:url(#SVGID_00000135672295455389110510000009775876874102119855_);" d="M2409.219,2108.039
				c-1.254-7.365,0.9-14.841,5.785-20.493c9.468-10.952,25.825-25.958,37.69-15.844c17.669,15.063-1.692,66.58-1.692,66.58
				l-19.591,29.918l-0.276,19.095C2420.538,2174.884,2414.199,2144.355,2409.219,2108.039z"/>
			
				<linearGradient id="SVGID_00000133501043848883103740000016404209848925944726_" gradientUnits="userSpaceOnUse" x1="-4071.614" y1="2335.0356" x2="-3925.2729" y2="2335.0356" gradientTransform="matrix(-0.9998 -0.0189 -0.0189 0.9998 -886.2763 12.0052)">
				<stop  offset="0" style="stop-color:#FEBBBA"/>
				<stop  offset="1" style="stop-color:#FF928E"/>
			</linearGradient>
			<path style="fill:url(#SVGID_00000133501043848883103740000016404209848925944726_);" d="M3089.153,2347.124
				c14.708,16.304,36.547,30.567,51.936,39.493c-30.814,36.651-64.691,62.238-97.873,83.779l-12.411,26.495l-37.287-46.444
				C2993.518,2450.447,3062.616,2417.672,3089.153,2347.124z"/>
			
				<linearGradient id="SVGID_00000002371215016326973120000003114652054212178867_" gradientUnits="userSpaceOnUse" x1="-3872.5735" y1="2793.7637" x2="-3868.9028" y2="3197.4895" gradientTransform="matrix(-0.9998 -0.0189 -0.0189 0.9998 -886.2763 12.0052)">
				<stop  offset="0" style="stop-color:#09005D"/>
				<stop  offset="1" style="stop-color:#1A0F91"/>
			</linearGradient>
			<path style="fill:url(#SVGID_00000002371215016326973120000003114652054212178867_);" d="M2868.614,3210.492
				c0.002-0.817,0.072-1.644,0.298-2.474c13.282-48.755,75.188-78.112,75.188-78.112l24.267,2.364
				c13.159,43.442,10.863,69.891,8.396,81.644c-0.068,0.329-0.175,0.642-0.269,0.96
				C2956.413,3216.287,2915.127,3216.678,2868.614,3210.492z"/>
			<path style="fill:#BDD0FB;" d="M2976.495,3214.875c-1.156,3.918-4.123,6.93-7.859,7.643c-28.632,5.459-73.867-0.223-92.851-3.071
				c-4.189-0.628-7.184-4.569-7.171-8.954C2915.127,3216.678,2956.413,3216.287,2976.495,3214.875z"/>
			
				<linearGradient id="SVGID_00000008860671992219306660000009473347615116123065_" gradientUnits="userSpaceOnUse" x1="-3893.9683" y1="2963.011" x2="-3914.9294" y2="3145.947" gradientTransform="matrix(-0.9998 -0.0189 -0.0189 0.9998 -886.2763 12.0052)">
				<stop  offset="0" style="stop-color:#FEBBBA"/>
				<stop  offset="1" style="stop-color:#FF928E"/>
			</linearGradient>
			<path style="fill:url(#SVGID_00000008860671992219306660000009473347615116123065_);" d="M2978.823,3096.257l-11.229,49.357
				c-0.823,3.615-3.665,6.282-7.049,6.536c-4.144,0.31-10.037,0.427-15.942-0.555c-5.296-0.88-8.891-6.346-7.841-12.12l7.985-43.862
				L2978.823,3096.257z"/>
			<path style="fill:#BDD0FB;" d="M2763.326,3210.352c26.855-0.245,40.797-3.143,48.029-5.942c-0.033,2.669-0.099,5.386-0.24,8.198
				c-0.149,3.003-2.421,5.362-5.159,5.293l-147.355-3.734c-4.702-0.12-7.348-5.626-5.228-9.9
				C2672.667,3206.228,2721.812,3210.729,2763.326,3210.352z"/>
			
				<linearGradient id="SVGID_00000052802198022363644000000012980381957428955810_" gradientUnits="userSpaceOnUse" x1="-3681.4224" y1="2792.0269" x2="-3677.7517" y2="3195.7561" gradientTransform="matrix(-0.9998 -0.0189 -0.0189 0.9998 -886.2763 12.0052)">
				<stop  offset="0" style="stop-color:#09005D"/>
				<stop  offset="1" style="stop-color:#1A0F91"/>
			</linearGradient>
			<path style="fill:url(#SVGID_00000052802198022363644000000012980381957428955810_);" d="M2653.373,3204.267
				c0.185-0.372,0.345-0.751,0.604-1.1c13.358-17.94,47.191-53.527,112.99-67.996l31.442-0.399c0,0,13.533,24.584,12.946,69.637
				c-7.232,2.799-21.175,5.697-48.029,5.942C2721.812,3210.729,2672.667,3206.228,2653.373,3204.267z"/>
			
				<linearGradient id="SVGID_00000002379834566001443020000015816431098665788298_" gradientUnits="userSpaceOnUse" x1="-3723.2239" y1="2982.5803" x2="-3744.1848" y2="3165.5134" gradientTransform="matrix(-0.9998 -0.0189 -0.0189 0.9998 -886.2763 12.0052)">
				<stop  offset="0" style="stop-color:#FEBBBA"/>
				<stop  offset="1" style="stop-color:#FF928E"/>
			</linearGradient>
			<path style="fill:url(#SVGID_00000002379834566001443020000015816431098665788298_);" d="M2805.135,3087.26
				c-0.393,2.336-5.373,37.854-7.301,51.625c-0.458,3.272-2.881,5.766-5.883,6.067c-5.363,0.538-14.033,0.957-21.579-0.739
				c-4.071-0.916-6.955-4.896-6.868-9.462l1.055-55.881L2805.135,3087.26z"/>
			
				<linearGradient id="SVGID_00000176032614125093477220000009997831495160819086_" gradientUnits="userSpaceOnUse" x1="-3474.1589" y1="2146.0481" x2="-4144.5776" y2="3186.3545" gradientTransform="matrix(-0.9998 -0.0189 -0.0189 0.9998 -886.2763 12.0052)">
				<stop  offset="0" style="stop-color:#09005D"/>
				<stop  offset="1" style="stop-color:#1A0F91"/>
			</linearGradient>
			<path style="fill:url(#SVGID_00000176032614125093477220000009997831495160819086_);" d="M2842.613,2438.067
				c0,0-81.229,286.601-86.703,649.087c-0.099,6.609,4.432,12.399,10.873,13.884c9.491,2.187,23.454,4.834,35.057,4.728
				c6.194-0.057,11.456-4.549,12.613-10.635c11.804-62.121,79.419-412.053,115.242-468.394c0,0,16.957,313.123,6.586,475.211
				c-0.257,4.031,2.63,7.585,6.633,8.125c6.071,0.819,15.794,1.536,28.208,0.454c4.711-0.41,8.573-3.894,9.333-8.562
				c8.566-52.602,58.062-365.729,60.481-591.922c0.136-12.756-32.44-68.844-32.44-68.844L2842.613,2438.067z"/>
			
				<linearGradient id="SVGID_00000039124513683163794910000000536606124068554374_" gradientUnits="userSpaceOnUse" x1="3545.4407" y1="1426.1957" x2="3159.9583" y2="1941.8411">
				<stop  offset="0" style="stop-color:#FF928E"/>
				<stop  offset="1" style="stop-color:#FE7062"/>
			</linearGradient>
			<path style="fill:url(#SVGID_00000039124513683163794910000000536606124068554374_);" d="M2743.789,2087.487
				c12.592-15.186,23.68-31.51,33.016-48.37c13.038-23.547,0.722,15.417,4.668-11.377c95.56-66.251,236.872-29.136,291.653-21.182
				c17.963,2.608,34.262,11.796,45.868,25.752c46.027,55.342,146.466,206.377,22.095,354.307
				c-15.389-8.926-37.228-23.189-51.936-39.493c14.161-37.649,16.177-86.065-10.88-145.993c-1.052,4.69-2.33,9.328-3.863,13.888
				c-41.161,122.308-45.167,224.66-45.526,248.26c-0.048,3.204-2.027,6.053-5.025,7.19c-51.502,19.517-149.667,5.468-182.603-0.077
				c-6.039-1.017-10.007-6.733-9.056-12.782c18.428-117.136-61.118-311.904-82.178-360.708
				C2748.508,2093.389,2746.381,2090.214,2743.789,2087.487z"/>
			
				<linearGradient id="SVGID_00000042723407275160319020000017518747368049516187_" gradientUnits="userSpaceOnUse" x1="-3847.6357" y1="1793.5625" x2="-3927.6692" y2="2139.4209" gradientTransform="matrix(-0.9998 -0.0189 -0.0189 0.9998 -886.2763 12.0052)">
				<stop  offset="0" style="stop-color:#FEBBBA"/>
				<stop  offset="1" style="stop-color:#FF928E"/>
			</linearGradient>
			<path style="fill:url(#SVGID_00000042723407275160319020000017518747368049516187_);" d="M2986.645,1905.998l7.951,100.836
				c0,0-56.943,15.985-97.576-13.85l30.677-90.929L2986.645,1905.998z"/>
			<g>
				
					<linearGradient id="SVGID_00000135683035974339043960000009705508185312441531_" gradientUnits="userSpaceOnUse" x1="-3869.2747" y1="-3515.5454" x2="-4011.2659" y2="-3327.7026" gradientTransform="matrix(-0.6715 -0.7409 -0.7409 0.6715 -2261.6704 1305.1805)">
					<stop  offset="0" style="stop-color:#FEBBBA"/>
					<stop  offset="1" style="stop-color:#FF928E"/>
				</linearGradient>
				<path style="fill:url(#SVGID_00000135683035974339043960000009705508185312441531_);" d="M2923.111,1790.041
					c-1.387,1.257-59.619,110.463-59.619,110.463l63.061,31.924l70.569-95.304
					C2997.123,1837.124,2946.331,1768.996,2923.111,1790.041z"/>
				
					<linearGradient id="SVGID_00000058566605928734446020000005577940469059724164_" gradientUnits="userSpaceOnUse" x1="-3977.7148" y1="-3470.4353" x2="-3808.104" y2="-3470.4353" gradientTransform="matrix(-0.6715 -0.7409 -0.7409 0.6715 -2261.6704 1305.1805)">
					<stop  offset="0" style="stop-color:#09005D"/>
					<stop  offset="1" style="stop-color:#1A0F91"/>
				</linearGradient>
				<path style="fill:url(#SVGID_00000058566605928734446020000005577940469059724164_);" d="M2968.915,1839.267
					c1.079,2.958,0.738,6.231-0.933,8.901l-32.74,52.313c-0.497,0.793-1.084,1.508-1.781,2.133
					c-3.845,3.446-16.966,13.43-26.697-0.686c-8.294-12.031-16.083-22.973-24.563-27.585c-4.951-2.694-11.146-0.735-13.779,4.25
					c-5.425,10.266-15.953,31.204-22.696,51.118c-1.689,4.992,0.801,10.432,5.647,12.503c12.787,5.465,38.079,15.387,60.621,18.933
					c3.703,0.583,7.408-0.914,9.675-3.9c9.975-13.137,38.083-49.845,47.613-58.987c8.853-8.493,24.83-4.926,32.018-2.713
					c2.729,0.841,5.656,0.516,8.129-0.91c7.416-4.278,20.419-15.034,9.066-33.875c-2.823-4.684-1.223-10.823,3.403-13.742
					c8.288-5.231,17.362-15.171,9.208-31.7c-8.255-16.732-23.527-18.509-33.971-17.432c-4.621,0.476-9.257-2.03-10.944-6.358
					c-0.75-1.925-2.275-3.583-5.16-4.225c-5.441-1.211-8.931-6.273-7.756-11.722c2.015-9.343,0.861-21.55-13.956-30.065
					c-27.175-15.616-51.692,8.53-58.199,29.181c-6.509,20.651,23.915,35.907,43.182,38.72
					C2958.452,1815.486,2965.938,1831.115,2968.915,1839.267z"/>
				
					<linearGradient id="SVGID_00000100343761405564190580000012224808293171163528_" gradientUnits="userSpaceOnUse" x1="-4077.2354" y1="-3366.79" x2="-3963.3477" y2="-3483.636" gradientTransform="matrix(-0.6715 -0.7409 -0.7409 0.6715 -2261.6704 1305.1805)">
					<stop  offset="0" style="stop-color:#FEBBBA"/>
					<stop  offset="1" style="stop-color:#FF928E"/>
				</linearGradient>
				<path style="fill:url(#SVGID_00000100343761405564190580000012224808293171163528_);" d="M2956.992,1917.466
					c0,0,12.885-35.496,28.49-33.89c15.605,1.606,27.612,17.409,7.912,34.547C2968.888,1939.44,2956.992,1917.466,2956.992,1917.466
					z"/>
			</g>
			
				<linearGradient id="SVGID_00000109006159518608669810000006070796744161387908_" gradientUnits="userSpaceOnUse" x1="3549.4478" y1="1724.5526" x2="2803.5173" y2="2380.3713">
				<stop  offset="0" style="stop-color:#E1473D"/>
				<stop  offset="1" style="stop-color:#E9605A"/>
			</linearGradient>
			<path style="fill:url(#SVGID_00000109006159518608669810000006070796744161387908_);" d="M3083.602,2192.025
				c21.666-55.991,15.478-124.214,15.412-124.897l-5.688,0.541c0.062,0.67,6.116,67.584-15.056,122.292L3083.602,2192.025z"/>
			
				<linearGradient id="SVGID_00000062883567100798125460000011398459175110421158_" gradientUnits="userSpaceOnUse" x1="-3475.209" y1="2526.1536" x2="-2987.9087" y2="1645.0073" gradientTransform="matrix(-1 0 0 1 -550.1121 0)">
				<stop  offset="0" style="stop-color:#09005D"/>
				<stop  offset="1" style="stop-color:#1A0F91"/>
			</linearGradient>
			<path style="fill:url(#SVGID_00000062883567100798125460000011398459175110421158_);" d="M2932.619,2619.448
				c1.27,0.024,2.447-0.806,2.804-2.088c6.743-24.122,54.31-49.873,54.789-50.131c1.391-0.746,1.915-2.478,1.167-3.87
				c-0.746-1.39-2.47-1.916-3.869-1.168c-2.044,1.097-50.195,27.166-57.591,53.629c-0.425,1.521,0.464,3.098,1.983,3.521
				C2932.139,2619.409,2932.382,2619.443,2932.619,2619.448z"/>
			
				<linearGradient id="SVGID_00000081630129331656074360000005537264504602278534_" gradientUnits="userSpaceOnUse" x1="3435.5278" y1="865.1613" x2="3100.1091" y2="1541.006">
				<stop  offset="0" style="stop-color:#FF928E"/>
				<stop  offset="0.9512" style="stop-color:#FE7264"/>
				<stop  offset="1" style="stop-color:#FE7062"/>
			</linearGradient>
			<path style="fill:url(#SVGID_00000081630129331656074360000005537264504602278534_);" d="M2890.32,1756.898l145.774,113.529
				c2.106,1.64,5.198,0.396,5.581-2.246l1.511-10.406c0,0,60.666-61.002-1.667-116.149c-62.332-55.145-135.874,7.325-135.874,7.325
				l-14.103,2.795C2889.096,1752.231,2888.352,1755.366,2890.32,1756.898z"/>
		</g>
		<g>
			
				<linearGradient id="SVGID_00000056406762184640917340000010025639810523098541_" gradientUnits="userSpaceOnUse" x1="1193.1681" y1="2024.6415" x2="1315.0762" y2="2024.6415" gradientTransform="matrix(0.9998 -0.0189 0.0189 0.9998 -59.5478 19.4772)">
				<stop  offset="0" style="stop-color:#A22B25"/>
				<stop  offset="1" style="stop-color:#C0423C"/>
			</linearGradient>
			<path style="fill:url(#SVGID_00000056406762184640917340000010025639810523098541_);" d="M1175.787,2034.968
				c0,0-9.175-23.682-0.501-26.557c8.674-2.875,118.006-2.228,118.006-2.228s-32.968,27.086-44.577,27.408
				c-11.609,0.322-34.074-3.456-34.074-3.456L1175.787,2034.968z"/>
			
				<linearGradient id="SVGID_00000002365659680885455410000004351683221491349151_" gradientUnits="userSpaceOnUse" x1="887.2869" y1="1850.3977" x2="755.402" y2="1641.8353" gradientTransform="matrix(0.9998 -0.0189 0.0189 0.9998 -59.5478 19.4772)">
				<stop  offset="0" style="stop-color:#4F52FF"/>
				<stop  offset="1" style="stop-color:#4042E2"/>
			</linearGradient>
			<path style="fill:url(#SVGID_00000002365659680885455410000004351683221491349151_);" d="M822.533,1769.364
				c3.01-2.744,81.2-36.308,64.598-55.758c-4.743-5.557-8.032-12.147-9.115-19.373c-2.378-15.856-12.81-38.437-54.488-27.273
				c-29.329,7.857-41.544,21.401-46.284,33.458c-5.211,13.251-16.544,22.929-30.524,25.631
				c-16.607,3.21-33.445,12.664-29.765,38.385c0.678,4.737,0.617,9.547-0.366,14.231c-4.559,21.728-11.996,81.574,57.192,37.573
				c2.404-1.529,4.652-3.318,6.68-5.32L822.533,1769.364z"/>
			
				<linearGradient id="SVGID_00000076574883008050523080000007537857528279501209_" gradientUnits="userSpaceOnUse" x1="994.0059" y1="1377.8468" x2="889.4258" y2="1644.8599">
				<stop  offset="0" style="stop-color:#4F52FF"/>
				<stop  offset="1" style="stop-color:#4042E2"/>
			</linearGradient>
			<path style="fill:url(#SVGID_00000076574883008050523080000007537857528279501209_);" d="M755.9,1809.897l71.751,75.475
				l77.583-63.149l-38.835-88.075c-5.275-11.963-18.552-18.436-31.121-14.837c-32.523,9.315-59.72,27.979-81.328,56.449
				C746.135,1786.057,746.994,1800.529,755.9,1809.897z"/>
			
				<linearGradient id="SVGID_00000158015347088037144260000000439292940606735019_" gradientUnits="userSpaceOnUse" x1="1263.808" y1="2017.8843" x2="1007.7001" y2="2261.7239" gradientTransform="matrix(0.9998 -0.0189 0.0189 0.9998 -59.5478 19.4772)">
				<stop  offset="0" style="stop-color:#4F52FF"/>
				<stop  offset="1" style="stop-color:#4042E2"/>
			</linearGradient>
			<path style="fill:url(#SVGID_00000158015347088037144260000000439292940606735019_);" d="M1013.54,2043.532
				c0,0,23.03,0.214,50.75,57.083c20.731,42.53,38.391,79.215,79.371,78.441s32.125-144.089,32.125-144.089l38.854-4.833
				c0,0,55.752,238.767-73.142,251.45c-128.425,12.636-164.381-121.677-164.381-121.677L1013.54,2043.532z"/>
			
				<linearGradient id="SVGID_00000081637209190106258060000017073063242354277042_" gradientUnits="userSpaceOnUse" x1="2041.0133" y1="3506.3496" x2="2046.8945" y2="3329.9148" gradientTransform="matrix(-0.9998 0.0189 0.0189 0.9998 2801.8799 -34.2805)">
				<stop  offset="0" style="stop-color:#4F52FF"/>
				<stop  offset="1" style="stop-color:#4042E2"/>
			</linearGradient>
			<path style="fill:url(#SVGID_00000081637209190106258060000017073063242354277042_);" d="M762.524,3213.034
				c-0.025-0.743,0.011-1.498,0.187-2.261c10.409-44.821,55.985-68.554,55.985-68.554l22.162,1.317
				c13.466,39.077,22.033,58.117,20.192,68.895c-0.051,0.302-0.137,0.591-0.211,0.883
				C842.614,3215.29,805.061,3217.064,762.524,3213.034z"/>
			<path style="fill:#7D97F4;" d="M860.838,3213.314c-0.917,3.605-3.512,6.447-6.888,7.224c-25.865,5.951-67.221,2.335-84.592,0.397
				c-3.832-0.427-6.694-3.91-6.833-7.901C805.061,3217.064,842.614,3215.29,860.838,3213.314z"/>
			
				<linearGradient id="SVGID_00000178908737169572656120000002709533889246993285_" gradientUnits="userSpaceOnUse" x1="2639.8589" y1="3059.543" x2="2620.1279" y2="3231.7424" gradientTransform="matrix(0.9998 -0.0189 0.0189 0.9998 -1871.0601 53.6826)">
				<stop  offset="0" style="stop-color:#FEBBBA"/>
				<stop  offset="1" style="stop-color:#FF928E"/>
			</linearGradient>
			<path style="fill:url(#SVGID_00000178908737169572656120000002709533889246993285_);" d="M799.823,3108.126l10.57,46.46
				c0.774,3.404,3.449,5.914,6.636,6.153c3.901,0.292,9.448,0.402,15.006-0.523c4.985-0.829,8.37-5.974,7.381-11.408l-7.517-41.288
				L799.823,3108.126z"/>
			<path style="fill:#7D97F4;" d="M1048.861,3209.377c-23.648-0.215-35.924-2.768-42.293-5.232c0.03,2.35,0.089,4.742,0.211,7.218
				c0.132,2.645,2.132,4.722,4.543,4.661l129.753-3.288c4.141-0.104,6.471-4.953,4.604-8.717
				C1128.691,3205.746,1085.415,3209.709,1048.861,3209.377z"/>
			
				<linearGradient id="SVGID_00000118394385015337575940000015780717769378709893_" gradientUnits="userSpaceOnUse" x1="2873.4641" y1="3615.8301" x2="2879.3455" y2="3439.3953" gradientTransform="matrix(0.9998 -0.0189 0.0189 0.9998 -1871.0601 53.6826)">
				<stop  offset="0" style="stop-color:#4F52FF"/>
				<stop  offset="1" style="stop-color:#4042E2"/>
			</linearGradient>
			<path style="fill:url(#SVGID_00000118394385015337575940000015780717769378709893_);" d="M1145.679,3204.019
				c-0.163-0.327-0.304-0.662-0.532-0.969c-11.763-15.797-41.554-47.133-99.493-59.874l-27.686-0.351c0,0-11.916,21.647-11.4,61.319
				c6.369,2.464,18.646,5.017,42.293,5.232C1085.415,3209.709,1128.691,3205.746,1145.679,3204.019z"/>
			
				<linearGradient id="SVGID_00000123434959449309657760000012422787898922468769_" gradientUnits="userSpaceOnUse" x1="2847.7129" y1="3081.5776" x2="2829.2556" y2="3242.6602" gradientTransform="matrix(0.9998 -0.0189 0.0189 0.9998 -1871.0601 53.6826)">
				<stop  offset="0" style="stop-color:#FEBBBA"/>
				<stop  offset="1" style="stop-color:#FF928E"/>
			</linearGradient>
			<path style="fill:url(#SVGID_00000123434959449309657760000012422787898922468769_);" d="M1012.044,3100.989
				c0.346,2.056,4.731,33.331,6.429,45.458c0.403,2.881,2.537,5.076,5.181,5.342c4.722,0.474,12.356,0.842,19-0.652
				c3.585-0.805,6.124-4.311,6.048-8.331l-0.929-49.206L1012.044,3100.989z"/>
			
				<linearGradient id="SVGID_00000071545032767186454680000016405460450658140094_" gradientUnits="userSpaceOnUse" x1="921.8989" y1="3076.3833" x2="944.0409" y2="2382.6121" gradientTransform="matrix(0.9998 -0.0189 0.0189 0.9998 -59.5478 19.4772)">
				<stop  offset="0" style="stop-color:#09005D"/>
				<stop  offset="1" style="stop-color:#1A0F91"/>
			</linearGradient>
			<path style="fill:url(#SVGID_00000071545032767186454680000016405460450658140094_);" d="M806.747,2495.283
				c0,0-36.846,394.406-7.602,639.923c0,0,29.518-0.557,44.183-5.756c0,0,38.744-385.679,51.55-496.075
				c0.482-4.162,6.405-4.462,7.297-0.368c20.114,92.293,99.104,454.22,108.328,488.366c0,0,24.785,9.375,44.276-0.836
				c0,0-49.296-525.657-80.579-618.573L806.747,2495.283z"/>
			
				<linearGradient id="SVGID_00000118390848637546435880000016368417693808737186_" gradientUnits="userSpaceOnUse" x1="1064.3663" y1="1839.9301" x2="818.994" y2="2350.6108" gradientTransform="matrix(0.9998 -0.0189 0.0189 0.9998 -59.5478 19.4772)">
				<stop  offset="0" style="stop-color:#4F52FF"/>
				<stop  offset="1" style="stop-color:#4042E2"/>
			</linearGradient>
			<path style="fill:url(#SVGID_00000118390848637546435880000016368417693808737186_);" d="M709.554,2039.429
				c0,0,155.654-32.468,303.986,4.103l5.923,115.576c2.851,18.24,3.076,49.304-0.092,67.492
				c-10.558,60.606-23.569,202.173-45.171,275.363c0,0-112.78,21.815-167.454-6.681c0,0-49.293-264.824-74.634-303.718
				C732.113,2191.565,705.563,2088.718,709.554,2039.429z"/>
			
				<linearGradient id="SVGID_00000121255592932538608480000014040582752481449396_" gradientUnits="userSpaceOnUse" x1="842.0712" y1="1967.8671" x2="930.5521" y2="1967.8671" gradientTransform="matrix(0.9998 -0.0189 0.0189 0.9998 -59.5478 19.4772)">
				<stop  offset="0" style="stop-color:#FEBBBA"/>
				<stop  offset="1" style="stop-color:#FF928E"/>
			</linearGradient>
			<path style="fill:url(#SVGID_00000121255592932538608480000014040582752481449396_);" d="M836.885,1902.549l-16.245,126.294
				c0,0,52.482,22.919,88.444-2.696l-9.523-88.734L836.885,1902.549z"/>
			<g>
				
					<linearGradient id="SVGID_00000127758805888088218270000014513150947294382011_" gradientUnits="userSpaceOnUse" x1="9996.3574" y1="-1294.0504" x2="10151.3643" y2="-1331.7769" gradientTransform="matrix(0.8664 -0.4992 0.4992 0.8664 94.3049 1112.2814)">
					<stop  offset="0" style="stop-color:#FEBBBA"/>
					<stop  offset="1" style="stop-color:#FF928E"/>
				</linearGradient>
				<path style="fill:url(#SVGID_00000127758805888088218270000014513150947294382011_);" d="M915.522,1819.026
					c0.606,1.053,13.031,64.349,20.682,103.53c3.162,16.189-8.492,31.502-24.938,32.788l-15.058,1.177
					c-27.668,2.163-52.433-17.097-57.149-44.446l-12.245-71.005C826.815,1841.069,900.794,1793.466,915.522,1819.026z"/>
				
					<linearGradient id="SVGID_00000048479245304025260700000009056899746143347118_" gradientUnits="userSpaceOnUse" x1="230.4418" y1="1010.4063" x2="390.0997" y2="1010.4063" gradientTransform="matrix(0.8664 -0.4992 0.4992 0.8664 94.3049 1112.2814)">
					<stop  offset="0" style="stop-color:#09005D"/>
					<stop  offset="1" style="stop-color:#1A0F91"/>
				</linearGradient>
				<path style="fill:url(#SVGID_00000048479245304025260700000009056899746143347118_);" d="M810.565,1841.552
					c-5.915-7.079-11.175-18.605,0.903-31.059c12.227-12.608,26.423-9.791,35.469-5.811c4.003,1.762,8.879,0.856,11.642-2.537
					c1.228-1.507,3.072-2.552,5.842-2.294c5.224,0.487,9.813-3.044,10.334-8.264c0.892-8.95,5.451-19.556,21.184-22.904
					c28.856-6.145,43.85,22.566,43.719,42.947c-0.132,20.38-31.795,25.264-49.87,22.223c-13.276-2.235-24.495,9.607-29.516,16.051
					c-1.823,2.338-2.462,5.371-1.736,8.244l4.95,19.593c-3.056,6.177-6.051,12.484-10.406,17.788
					c-3.136,3.82-6.614,5.96-10.326,6.909c-5.59-9.949-20.724-11.368-27.747-11.461c-2.687-0.035-5.217-1.172-7.02-3.163
					c-5.409-5.973-13.953-19.365,1.66-32.969C813.528,1851.464,813.865,1845.503,810.565,1841.552z"/>
				
					<linearGradient id="SVGID_00000169536122568984700860000010088738953818013335_" gradientUnits="userSpaceOnUse" x1="9990.8574" y1="-1316.4944" x2="10145.8643" y2="-1354.2207" gradientTransform="matrix(0.8664 -0.4992 0.4992 0.8664 94.3049 1112.2814)">
					<stop  offset="0" style="stop-color:#FEBBBA"/>
					<stop  offset="1" style="stop-color:#FF928E"/>
				</linearGradient>
				<path style="fill:url(#SVGID_00000169536122568984700860000010088738953818013335_);" d="M848.374,1923.409
					c0,0-1.295-35.523-15.74-38.589c-14.445-3.067-29.766,7.625-17.063,28.668C831.371,1939.662,848.374,1923.409,848.374,1923.409z
					"/>
			</g>
			
				<linearGradient id="SVGID_00000166671048342655843680000001867704366683409557_" gradientUnits="userSpaceOnUse" x1="965.6776" y1="1792.5012" x2="720.3014" y2="2303.1899" gradientTransform="matrix(0.9998 -0.0189 0.0189 0.9998 -59.5478 19.4772)">
				<stop  offset="0" style="stop-color:#4F52FF"/>
				<stop  offset="1" style="stop-color:#4042E2"/>
			</linearGradient>
			<path style="fill:url(#SVGID_00000166671048342655843680000001867704366683409557_);" d="M709.554,2039.429
				c0,0-284.313,320.337,59.878,434.412l-0.465-24.597c0,0-129.954-105.818-34.348-255.264
				C734.619,2193.98,719.672,2054.002,709.554,2039.429z"/>
			
				<linearGradient id="SVGID_00000005253553390273189330000004473480046596216231_" gradientUnits="userSpaceOnUse" x1="863.5956" y1="2419.3774" x2="706.1373" y2="2553.8728" gradientTransform="matrix(0.9998 -0.0189 0.0189 0.9998 -59.5478 19.4772)">
				<stop  offset="0" style="stop-color:#A22B25"/>
				<stop  offset="1" style="stop-color:#C0423C"/>
			</linearGradient>
			<path style="fill:url(#SVGID_00000005253553390273189330000004473480046596216231_);" d="M771.474,2451.656
				c0,0,43.719-30.354,63.583-20.886c19.865,9.467,20.144,24.226,20.144,24.226s-9.468,19.865-24.32,15.223
				c-14.852-4.64-49.103,5.85-63.955,1.208C766.926,2471.427,761.634,2451.842,771.474,2451.656z"/>
			<g>
				<path style="fill:#7D97F4;" d="M1306.666,1834.296l-12.102-2.182l3.575-19.816c1.246-6.91-3.061-13.732-9.805-15.534
					c-25.061-6.687-50.235-2.422-66.944,2.329c-6.779,1.929-10.89,8.635-9.561,15.598l3.644,19.083l-12.079,2.306l-3.644-19.083
					c-2.532-13.265,5.325-26.046,18.276-29.73c18.194-5.177,45.713-9.794,73.48-2.382c12.881,3.442,21.109,16.442,18.735,29.598
					L1306.666,1834.296z"/>
				<path style="fill:#7D97F4;" d="M1091.741,2006.594c4.072-1.443,329.208-6.216,329.208-6.216s2.097-182.057-168.641-178.16
					C1081.569,1826.118,1091.741,2006.594,1091.741,2006.594z"/>
				<path style="fill:#91B3FA;" d="M1088.889,1998.45l337.758-6.378c6.736-0.127,10.163,8.046,5.351,12.761l-8.633,8.458
					c-1.356,1.329-3.17,2.089-5.069,2.126l-322.629,6.092c-2.319,0.044-4.525-0.995-5.968-2.811l-6.496-8.172
					C1079.364,2005.698,1082.723,1998.566,1088.889,1998.45z"/>
				
					<linearGradient id="SVGID_00000130622377411706629330000006013723381455511443_" gradientUnits="userSpaceOnUse" x1="1114.2734" y1="1903.1844" x2="1240.7854" y2="1903.1844">
					<stop  offset="0" style="stop-color:#DAE3FE"/>
					<stop  offset="1" style="stop-color:#E9EFFD"/>
				</linearGradient>
				<path style="fill:url(#SVGID_00000130622377411706629330000006013723381455511443_);" d="M1117.614,1968.744
					c-0.085,0-0.173-0.003-0.261-0.01c-1.839-0.143-3.211-1.747-3.07-3.585c0.091-1.203,10.574-120.619,122.959-127.522
					c1.956-0.032,3.426,1.287,3.536,3.126c0.114,1.841-1.287,3.422-3.126,3.536c-106.541,6.545-116.349,116.691-116.714,121.375
					C1120.802,1967.414,1119.342,1968.744,1117.614,1968.744z"/>
			</g>
		</g>
		<g>
			<path style="fill:#7D97F4;" d="M1626.684,1824.066l32.659,45.709l74.73-107.479l-19.65-19.048
				c-9.554-9.261-24.194-10.733-35.404-3.562c-16.126,10.316-38.434,27.793-53.392,52.602
				C1619.658,1802.189,1619.963,1814.658,1626.684,1824.066z"/>
			<g>
				
					<linearGradient id="SVGID_00000002344728154459889680000014341196452689227651_" gradientUnits="userSpaceOnUse" x1="530.5146" y1="1817.9231" x2="879.8922" y2="2299.9968" gradientTransform="matrix(-0.9998 0.0189 0.0189 0.9998 2296.5774 -24.7392)">
					<stop  offset="0" style="stop-color:#09005D"/>
					<stop  offset="1" style="stop-color:#1A0F91"/>
				</linearGradient>
				<path style="fill:url(#SVGID_00000002344728154459889680000014341196452689227651_);" d="M1649.525,1835.539
					c0,0,6.026,11.505-31.444,30.368c-20.893,10.518-61.627,26.252-66.215,70.046c-2.368,22.609-18.719,40.992-41.123,44.859
					c-55.799,9.634-141.49,40.32-153.453,137.739c-9.132,74.358,29.206,101.765,69.065,110.748
					c29.276,6.599,49.178,34.577,43.837,64.109c-5.12,28.325,3.926,60.787,53.3,85.661
					c110.642,55.737,216.369-141.083,216.369-141.083l16-340.476L1649.525,1835.539z"/>
				
					<linearGradient id="SVGID_00000121273516037639960410000002396557203800148651_" gradientUnits="userSpaceOnUse" x1="964.8354" y1="3134.1431" x2="922.5599" y2="2945.4128" gradientTransform="matrix(-0.9998 0.0189 0.0189 0.9998 2296.5774 -24.7392)">
					<stop  offset="0" style="stop-color:#4F52FF"/>
					<stop  offset="1" style="stop-color:#4042E2"/>
				</linearGradient>
				<path style="fill:url(#SVGID_00000121273516037639960410000002396557203800148651_);" d="M1416.971,3163.638l-3.795,37.013
					c-0.719,7.021-6.131,12.664-13.127,13.598c-11.812,1.575-30.784,3.321-49.406,1.707c-8.175-0.708-13.627-8.869-11.29-16.735
					c4.262-14.342,12.147-35.897,23.861-48.716l40.964-0.774C1411.75,3149.588,1417.743,3156.102,1416.971,3163.638z"/>
				
					<linearGradient id="SVGID_00000158024942014350577680000004075105600306091915_" gradientUnits="userSpaceOnUse" x1="-3414.4346" y1="3501.7776" x2="-3300.7634" y2="2173.2463" gradientTransform="matrix(-0.9998 0.0189 0.0189 0.9998 -1722.9166 51.1579)">
					<stop  offset="0" style="stop-color:#A22B25"/>
					<stop  offset="1" style="stop-color:#C0423C"/>
				</linearGradient>
				<path style="fill:url(#SVGID_00000158024942014350577680000004075105600306091915_);" d="M1729.647,2724.999l7.683,40.54
					c0,0-18.725,234.968-21.072,328.857c-0.368,14.721,3.711,29.183,11.667,41.573l41.495,64.62l-103.462-58.447l-2.273-12.448
					l16.314-23.346l-26.9-262.318c-1.581-15.41,1.312-30.948,8.332-44.758l20.414-40.16L1729.647,2724.999z"/>
				
					<linearGradient id="SVGID_00000124150331571971996630000011199485290386085296_" gradientUnits="userSpaceOnUse" x1="624.4755" y1="3147.6204" x2="684.8701" y2="3334.8435" gradientTransform="matrix(-0.9998 0.0189 0.0189 0.9998 2296.5774 -24.7392)">
					<stop  offset="0" style="stop-color:#4F52FF"/>
					<stop  offset="1" style="stop-color:#4042E2"/>
				</linearGradient>
				<path style="fill:url(#SVGID_00000124150331571971996630000011199485290386085296_);" d="M1776.337,3209.933l-32.653,0.617
					c-6.113,0.115-11.929-2.582-15.749-7.355c-10.428-13.036-32.006-38.442-42.104-38.925
					c-13.592-0.651-10.945,47.579-10.945,47.579l-7.609,0.144l-10.772-59.79c-2.71-15.043,4.511-30.134,17.928-37.46l0,0
					c0,0,3.536,22.892,20.556,32.726c17.018,9.834,69.353,45.214,69.353,45.214s6.31-1.023,13.278,0.103
					C1787.957,3194.452,1786.806,3209.735,1776.337,3209.933z"/>
				
					<linearGradient id="SVGID_00000165218384007327332510000000466768011018009777_" gradientUnits="userSpaceOnUse" x1="-3185.7769" y1="3521.5349" x2="-3072.0769" y2="2192.6653" gradientTransform="matrix(-0.9998 0.0189 0.0189 0.9998 -1722.9166 51.1579)">
					<stop  offset="0" style="stop-color:#A22B25"/>
					<stop  offset="1" style="stop-color:#C0423C"/>
				</linearGradient>
				<path style="fill:url(#SVGID_00000165218384007327332510000000466768011018009777_);" d="M1589.864,2746.962
					c0,0-130.785,259.862-151.238,319.015c-20.452,59.153-27.081,108.303-27.282,112.949c-0.314,7.26-9.203,14.385-34.065,14.855
					c-12.831,0.242-19.212-4.782-22.382-9.703c-2.705-4.198-2.941-9.51-0.814-14.028c7.546-16.027,31.489-67.243,40.275-90.435
					c10.492-27.687,31.824-152.669,43.995-196.213c12.172-43.546,25.967-90.792,81.714-135.124
					C1520.068,2748.28,1558.18,2709.516,1589.864,2746.962z"/>
				<path style="fill:#7D97F4;" d="M1667.591,2323.743c32.19-148.926-58.033-231.109-58.033-231.109
					c44.126-43.986,118.291-69.644,145.732-78.029c6.731-2.056,13.996-0.704,19.554,3.614
					c24.028,18.666,87.699,72.983,79.167,118.433c-6.143,32.74-64.66,196.635-64.66,196.635S1732.911,2361.315,1667.591,2323.743z"
					/>
				<path style="fill:#7D97F4;" d="M1591.399,2398.61c13.431-43.166,76.192-74.867,76.192-74.867
					c65.32,37.572,121.761,9.545,121.761,9.545s13.693,48.576,5.735,94.11c-7.958,45.534-57.757,338.141-57.757,338.141
					c-86.809,19.303-221.501-13.588-221.501-13.588C1569.474,2652.356,1577.971,2441.777,1591.399,2398.61z"/>
				
					<linearGradient id="SVGID_00000097492361424009943900000013838026350244336311_" gradientUnits="userSpaceOnUse" x1="1936.9305" y1="1587.4384" x2="1626.5276" y2="2138.1531">
					<stop  offset="0" style="stop-color:#A22B25"/>
					<stop  offset="1" style="stop-color:#C0423C"/>
				</linearGradient>
				<path style="fill:url(#SVGID_00000097492361424009943900000013838026350244336311_);" d="M1700.498,1914.76l-26.035,128.317
					c-2.511,11.306,7.715,9.271,19.054,6.91c18.569-3.865,42.451-11.554,50.205-26.206c0.788-1.491,1.166-3.167,1.365-4.843
					l10.548-88.837c0.838-7.047-3.091-13.798-9.633-16.552l-23.781-10.012C1713.064,1899.682,1702.651,1905.062,1700.498,1914.76z"
					/>
				<g>
					
						<linearGradient id="SVGID_00000033352137446860235950000017080801229722924698_" gradientUnits="userSpaceOnUse" x1="-3582.8718" y1="1434.297" x2="-3396.5623" y2="1102.729" gradientTransform="matrix(-0.9844 -0.1757 -0.1757 0.9844 -1495.7566 -52.0454)">
						<stop  offset="0" style="stop-color:#A22B25"/>
						<stop  offset="1" style="stop-color:#C0423C"/>
					</linearGradient>
					<path style="fill:url(#SVGID_00000033352137446860235950000017080801229722924698_);" d="M1752.786,1797.246
						c0,0,30.673,19.929,44.672,71.891c13.998,51.962-6.796,71.089-28.496,70.351c-21.7-0.739-53.259-6.849-81.2-43.789
						C1659.821,1858.759,1712.626,1772.945,1752.786,1797.246z"/>
					
						<linearGradient id="SVGID_00000134217127927757889550000000873076232733442460_" gradientUnits="userSpaceOnUse" x1="563.9888" y1="1758.8713" x2="928.9168" y2="2262.4019" gradientTransform="matrix(-0.9998 0.0189 0.0189 0.9998 2296.5774 -24.7392)">
						<stop  offset="0" style="stop-color:#09005D"/>
						<stop  offset="1" style="stop-color:#1A0F91"/>
					</linearGradient>
					<path style="fill:url(#SVGID_00000134217127927757889550000000873076232733442460_);" d="M1714.828,1874.123
						c0,0-12.509-74.599,49.818-64.329l12.805,12.838c0,0,29.755-34.812-4.377-60.057c-34.132-25.245-80.693-17.736-105.634,29.867
						c-24.939,47.604-33.688,80.889-11.486,109.757c22.203,28.868,38.014,3.451,38.014,3.451s-10.408-25.152-2.374-36.182
						c8.033-11.028,18.986,5.967,18.986,5.967L1714.828,1874.123z"/>
					
						<linearGradient id="SVGID_00000012437653436573543120000001793360098974309783_" gradientUnits="userSpaceOnUse" x1="-3543.2117" y1="1456.5776" x2="-3356.9075" y2="1125.0186" gradientTransform="matrix(-0.9844 -0.1757 -0.1757 0.9844 -1495.7566 -52.0454)">
						<stop  offset="0" style="stop-color:#A22B25"/>
						<stop  offset="1" style="stop-color:#C0423C"/>
					</linearGradient>
					<path style="fill:url(#SVGID_00000012437653436573543120000001793360098974309783_);" d="M1706.46,1880.69
						c0,0-6.204-38.385-25.654-27.011c-19.449,11.374,7.764,35.82,18.646,44.106L1706.46,1880.69z"/>
				</g>
				<path style="fill:#7D97F4;" d="M1609.194,2094.821c0,0-58.558,97.751-69.266,170.438
					c-10.708,72.687,104.589,100.712,146.058,57.646l-6.608-30.077c0,0-66.192,13.33-72.915-22.785
					c-6.722-36.115,52.292-109.714,52.292-109.714S1639.614,2106.327,1609.194,2094.821z"/>
				<g>
					
						<linearGradient id="SVGID_00000103256762683526511410000000308574229627750034_" gradientUnits="userSpaceOnUse" x1="2255.3364" y1="2121.5876" x2="2416.7729" y2="2794.2419" gradientTransform="matrix(0.9998 -0.0189 0.0189 0.9998 -514.4983 28.0677)">
						<stop  offset="0" style="stop-color:#4F52FF"/>
						<stop  offset="1" style="stop-color:#4042E2"/>
					</linearGradient>
					<path style="fill:url(#SVGID_00000103256762683526511410000000308574229627750034_);" d="M1665.148,2385.354l64.115-241.006
						c0.728-2.737,3.012-4.764,5.818-5.146c12.409-1.685,48.368-6.44,89.909-10.745c50.038-5.186,108.175-9.719,143.009-7.454
						c4.952,0.322,8.038,5.496,5.924,9.985c-19.023,40.386-97.302,204.685-137.034,258.773c-1.316,1.792-3.384,2.865-5.607,2.885
						l-159.287,1.525C1667.36,2394.217,1663.957,2389.833,1665.148,2385.354z"/>
					
						<linearGradient id="SVGID_00000137821204215796477410000006396333518034558336_" gradientUnits="userSpaceOnUse" x1="1964.3335" y1="1092.5388" x2="1914.2708" y2="1563.1246">
						<stop  offset="0" style="stop-color:#09005D"/>
						<stop  offset="1" style="stop-color:#1A0F91"/>
					</linearGradient>
					<path style="fill:url(#SVGID_00000137821204215796477410000006396333518034558336_);" d="M1831.717,2107.542l49.61-9.232
						c2.642-0.492,4.86,2,4.067,4.567l-4.645,15.021c-0.405,1.308-1.52,2.27-2.873,2.476l-47.769,7.301
						c-2.471,0.379-4.557-1.835-4.032-4.279l2.804-13.091C1829.179,2108.896,1830.3,2107.805,1831.717,2107.542z"/>
					
						<linearGradient id="SVGID_00000148656551829933361300000004937842874969522320_" gradientUnits="userSpaceOnUse" x1="2524.2507" y1="1341.4741" x2="2138.769" y2="1797.0427">
						<stop  offset="0" style="stop-color:#09005D"/>
						<stop  offset="1" style="stop-color:#1A0F91"/>
					</linearGradient>
					<path style="fill:url(#SVGID_00000148656551829933361300000004937842874969522320_);" d="M1795.249,2150.377l3.696-21.433
						c0.372-2.15,2.109-3.802,4.275-4.063l100.323-12.097c3.377-0.408,6.145,2.642,5.413,5.964l-5.888,26.73
						c-0.472,2.139-2.296,3.712-4.481,3.863l-98.131,6.8C1797.262,2156.362,1794.705,2153.531,1795.249,2150.377z"/>
					
						<linearGradient id="SVGID_00000104682036797179967160000001152949853490631860_" gradientUnits="userSpaceOnUse" x1="2144.7161" y1="2299.5383" x2="2236.1824" y2="2299.5383" gradientTransform="matrix(0.9998 -0.0189 0.0189 0.9998 -514.4983 28.0677)">
						<stop  offset="0" style="stop-color:#A22B25"/>
						<stop  offset="1" style="stop-color:#C0423C"/>
					</linearGradient>
					<path style="fill:url(#SVGID_00000104682036797179967160000001152949853490631860_);" d="M1680.639,2327.127
						c0,0-10.305-39.137-6.71-53.159c3.593-14.022,10.727-32.098,35.712-28.583c24.984,3.516,54.565,13.453,54.565,13.453
						s-1.141,18.198-20.183,12.694l11.911,8.862c0,0-1.404,14.58-17.541,7.11l11.146,11.841c0,0-6.642,12.077-18.552,4.637
						C1719.078,2296.539,1714.092,2331.231,1680.639,2327.127z"/>
				</g>
				<path style="fill:#FFFFFF;" d="M1439.028,2185.467c-1.607,0-3.452-0.685-5.065-1.692c-25.9-16.19-40.195-50.332-34.759-83.024
					c3.253-19.586,12.617-36.607,26.362-47.92c9.743-8.025,21.408-13.034,32.523-17.48c18.755-7.493,38.09-14.149,57.467-19.781
					c1.594-0.463,3.194-0.922,4.792-1.379c11.336-3.25,23.057-6.607,33.618-12.141c13.543-7.106,23.318-17.249,27.529-28.563
					c2.617-7.031,3.263-14.775,3.885-22.268c0.766-9.175,1.555-18.664,5.988-26.848c0.114-0.205,0.375-0.274,0.567-0.17
					c0.202,0.111,0.277,0.365,0.17,0.567c-4.351,8.031-5.134,17.432-5.893,26.519c-0.626,7.549-1.278,15.355-3.934,22.493
					c-4.283,11.506-14.198,21.806-27.927,29.006c-10.632,5.577-22.396,8.947-33.771,12.207c-1.597,0.456-3.194,0.916-4.788,1.379
					c-19.354,5.623-38.663,12.272-57.389,19.755c-11.056,4.42-22.656,9.4-32.307,17.35c-13.589,11.186-22.845,28.024-26.069,47.412
					c-5.381,32.37,8.758,66.164,34.38,82.177c1.913,1.2,5.567,2.637,7.093,0.421c0.127-0.189,0.381-0.241,0.58-0.104
					c0.189,0.13,0.238,0.388,0.104,0.58C1441.453,2185.027,1440.319,2185.467,1439.028,2185.467z"/>
				<path style="fill:#FFFFFF;" d="M1431.984,2154.9c-0.13,0-0.261-0.062-0.342-0.179c-10.15-14.566-15.58-29.954-15.704-44.504
					c-0.15-17.034,7.458-33.021,19.853-41.724c0.186-0.124,0.446-0.088,0.583,0.101c0.13,0.189,0.085,0.45-0.101,0.583
					c-12.177,8.546-19.648,24.27-19.501,41.033c0.124,14.381,5.502,29.605,15.554,44.035c0.13,0.189,0.085,0.45-0.104,0.58
					C1432.15,2154.877,1432.066,2154.9,1431.984,2154.9z"/>
			</g>
		</g>
	</g>
</g>
</svg>
